Coordinates
version=1
nRows=24
nColumns=24
inDegrees=yes

Units are S.I. units (second, meters, Newtons, ...)
Angles are in degrees.

endheader
time	pelvis_tilt	pelvis_list	pelvis_rotation	pelvis_tx	pelvis_ty	pelvis_tz	hip_flexion_r	hip_adduction_r	hip_rotation_r	knee_angle_r	ankle_angle_r	subtalar_angle_r	mtp_angle_r	hip_flexion_l	hip_adduction_l	hip_rotation_l	knee_angle_l	ankle_angle_l	subtalar_angle_l	mtp_angle_l	lumbar_extension	lumbar_bending	lumbar_rotation
      6.68000000	      1.16863817	     -2.14434611	     -6.72535336	      0.86217548	      0.66774104	      0.19892678	    -13.11589404	      6.67117195	      3.39851087	    -15.98055389	     17.99744227	     -5.01027281	      0.00000000	     18.16892255	      0.49870764	    -14.98758428	     -8.45087441	      0.74350862	    -13.37297315	      0.00000000	    -16.04169106	     -0.05426998	      4.71753134
      6.69000000	      1.12751025	     -1.72199845	     -6.87761533	      0.87220741	      0.66776630	      0.19869753	    -12.62079201	      6.07208456	      3.25678333	    -18.35415194	     16.74712934	     -5.02925823	      0.00000000	     17.82307328	      1.08690815	    -13.72522677	     -9.15332125	     -0.51926310	    -15.52264910	      0.00000000	    -15.58890883	     -0.55409647	      4.33856985
      6.70000000	      1.38122250	     -1.19804077	     -6.91561092	      0.88213007	      0.66845739	      0.19840046	    -12.25032406	      5.34773843	      3.02642435	    -20.92901567	     14.91607661	     -5.13783160	      0.00000000	     17.22501207	      1.78952116	    -12.75378274	    -10.01036652	     -1.12197453	    -17.03639264	      0.00000000	    -15.53688837	     -1.19941860	      3.83473339
      6.71000000	      1.61035485	     -0.59916801	     -6.87872111	      0.89186207	      0.66950786	      0.19805158	    -11.54974953	      4.53317258	      2.61091444	    -23.91338276	     12.73219007	     -4.93327691	      0.00000000	     16.71364413	      2.50470836	    -12.39552793	    -11.00805163	     -0.84710922	    -17.35992787	      0.00000000	    -15.50990858	     -1.91252962	      3.27344403
      6.72000000	      1.80096552	     -0.02386744	     -6.75435358	      0.90137329	      0.67080350	      0.19760335	    -10.52757274	      3.73884574	      2.12684868	    -27.25836719	     10.06374612	     -4.72021498	      0.00000000	     16.13542695	      3.21794061	    -12.11068906	    -11.80644251	     -0.36214294	    -17.58599489	      0.00000000	    -15.50994241	     -2.55123068	      2.65162515
      6.73000000	      1.93137324	      0.54654538	     -6.58546482	      0.91063112	      0.67220278	      0.19706508	     -9.15163447	      2.93415771	      1.64476598	    -30.97213335	      7.01665534	     -4.41582967	      0.00000000	     15.46705336	      3.93787817	    -12.00560496	    -12.29982619	      0.28522143	    -17.47531618	      0.00000000	    -15.51089660	     -3.14687842	      2.04357104
      6.74000000	      1.82944313	      0.99560646	     -6.49190786	      0.91961233	      0.67343434	      0.19656714	     -7.25608872	      2.25347042	      1.30246010	    -35.01953854	      3.66037818	     -4.25382699	      0.00000000	     14.89034222	      4.45334840	    -12.42599597	    -12.51564984	      1.42433103	    -16.48425354	      0.00000000	    -15.28036770	     -3.56496791	      1.55648961
      6.75000000	      1.80696245	      1.51658966	     -6.41436237	      0.92836235	      0.67460238	      0.19595171	     -5.20028223	      1.41775359	      0.89661653	    -39.34027869	      0.65619878	     -3.81726789	      0.00000000	     14.02648042	      5.09511346	    -12.98111798	    -12.27952308	      2.45672099	    -15.34848166	      0.00000000	    -15.18826848	     -4.03776623	      1.07154095
      6.76000000	      1.76897255	      2.03779601	     -6.36060569	      0.93687162	      0.67557171	      0.19525885	     -2.99205222	      0.57886496	      0.62386511	    -43.73056248	     -2.04445470	     -3.67372787	      0.00000000	     13.00611178	      5.79381625	    -13.47840406	    -11.64987864	      3.24355388	    -14.46346756	      0.00000000	    -15.11993725	     -4.47286502	      0.54089203
      6.77000000	      1.73231344	      2.53589943	     -6.29447553	      0.94516455	      0.67635771	      0.19451628	     -0.73585543	     -0.20056663	      0.47882166	    -48.02422874	     -4.29448683	     -4.03856397	      0.00000000	     11.88037946	      6.50989388	    -13.90498896	    -10.78113384	      3.92978760	    -13.56083140	      0.00000000	    -15.09781896	     -4.85447081	     -0.03202322
      6.78000000	      1.73702632	      2.99709531	     -6.16927296	      0.95327748	      0.67703258	      0.19372452	      1.44968534	     -0.88380357	      0.42002312	    -52.07328598	     -5.99862097	     -5.03303206	      0.00000000	     10.67453097	      7.22573997	    -14.18597540	     -9.82260194	      4.53032517	    -12.73519952	      0.00000000	    -15.17260744	     -5.17251893	     -0.70620494
      6.79000000	      1.78030522	      3.39407305	     -5.95267173	      0.96125012	      0.67766355	      0.19290563	      3.50946661	     -1.42616969	      0.40923200	    -55.76575263	     -7.11807434	     -6.65931514	      0.00000000	      9.43606998	      7.89432417	    -14.25520972	     -8.89177153	      5.10787912	    -11.97102883	      0.00000000	    -15.33379588	     -5.40241461	     -1.48800347
      6.80000000	      1.86450102	      3.74266185	     -5.60080633	      0.96913982	      0.67831297	      0.19204250	      5.41006373	     -1.87022347	      0.35745277	    -59.04190224	     -7.61259130	     -8.64334413	      0.00000000	      8.18102742	      8.52261788	    -14.10819473	     -8.03247360	      5.59607269	    -11.36974045	      0.00000000	    -15.56834462	     -5.55841618	     -2.46445783
      6.81000000	      1.90253658	      3.93781733	     -5.14546034	      0.97686768	      0.67896523	      0.19124527	      7.22974379	     -2.05132854	      0.34402779	    -61.85282194	     -7.68870891	    -11.17732142	      0.00000000	      7.04845842	      8.95259337	    -13.72893436	     -7.37139166	      6.11994403	    -10.74747698	      0.00000000	    -15.79655978	     -5.55163365	     -3.37959672
      6.82000000	      1.93539134	      4.07182209	     -4.57518683	      0.98454864	      0.67964288	      0.19044330	      8.94025139	     -2.14856497	      0.27605433	    -64.23292060	     -7.18311775	    -13.53578446	      0.00000000	      5.93642329	      9.30339253	    -13.16754853	     -6.77193175	      6.62402620	    -10.23603340	      0.00000000	    -16.01333345	     -5.47135536	     -4.37933329
      6.83000000	      1.96134113	      4.14898711	     -3.93667522	      0.99215764	      0.68031201	      0.18967239	     10.56807024	     -2.17222873	      0.20550056	    -66.21797143	     -6.05608625	    -15.45712778	      0.00000000	      4.84059812	      9.57219326	    -12.45409294	     -6.21557221	      7.13770089	     -9.82658876	      0.00000000	    -16.21655581	     -5.34298419	     -5.36216765
      6.84000000	      1.89998510	      4.10269675	     -3.24452366	      0.99969282	      0.68091166	      0.18895780	     12.19143034	     -2.03525466	      0.14882570	    -67.77893371	     -4.70112891	    -17.17138896	      0.00000000	      3.83380827	      9.67489795	    -11.70036427	     -5.67020085	      7.59369499	     -9.45106766	      0.00000000	    -16.30105191	     -5.08616622	     -6.25053875
      6.85000000	      1.78236540	      3.99426114	     -2.53187240	      1.00717470	      0.68141319	      0.18828894	     13.80179178	     -1.82559333	      0.13040703	    -68.96354316	     -3.14509806	    -18.49502988	      0.00000000	      2.86270621	      9.68516483	    -10.93800341	     -5.08137190	      8.03355585	     -9.10159607	      0.00000000	    -16.29789290	     -4.78534109	     -7.04370673
      6.86000000	      1.59753309	      3.84789127	     -1.81765965	      1.01460479	      0.68176826	      0.18766557	     15.42701408	     -1.58038834	      0.15812452	    -69.81355487	     -1.39612131	    -19.29499385	      0.00000000	      1.93453691	      9.63082117	    -10.16282772	     -4.43346601	      8.43891496	     -8.77865586	      0.00000000	    -16.19887196	     -4.47374103	     -7.76830496
      6.87000000	      1.39224396	      3.69272253	     -1.14840210	      1.02201799	      0.68198846	      0.18706935	     17.02176569	     -1.33878024	      0.26632977	    -70.34834846	      0.52345846	    -19.55893719	      0.00000000	      0.99476532	      9.55045110	     -9.44229831	     -3.71124310	      8.82128525	     -8.48187789	      0.00000000	    -16.05253534	     -4.16368530	     -8.40509248
      6.88000000	      1.20235540	      3.54662574	     -0.54390586	      1.02944389	      0.68210584	      0.18654483	     18.53793985	     -1.12347365	      0.43978518	    -70.55406581	      2.49688800	    -19.51966790	      0.00000000	      0.01151454	      9.45982592	     -8.86650169	     -2.91607556	      9.11650879	     -8.19464082	      0.00000000	    -15.90309375	     -3.90879946	     -8.87592673
      6.89000000	      1.03352289	      3.35329719	      0.04716702	      1.03684246	      0.68213939	      0.18609075	     19.93892644	     -0.84565526	      0.65947879	    -70.37075969	      3.89550736	    -19.88469379	      0.00000000	     -0.97302260	      9.29049487	     -8.26773038	     -2.16934339	      9.61311441	     -7.84526840	      0.00000000	    -15.78350372	     -3.63035237	     -9.32064397
      6.90000000	      0.85317676	      3.20340522	      0.58391894	      1.04418304	      0.68204851	      0.18567237	     21.30109175	     -0.63256640	      0.94111844	    -69.90101457	      5.55343938	    -19.73496802	      0.00000000	     -1.89434206	      9.14935208	     -7.73182766	     -1.48448276	      9.90602865	     -7.53538007	      0.00000000	    -15.68130714	     -3.41104143	     -9.77158069
      6.91000000	      0.69063845	      3.01851511	      1.09350160	      1.05151602	      0.68188599	      0.18533149	     22.53488053	     -0.37515170	      1.25791942	    -69.02580394	      6.59752352	    -20.13843971	      0.00000000	     -2.76727416	      8.94998552	     -7.17627741	     -0.92071622	     10.39693255	     -7.26793364	      0.00000000	    -15.60147825	     -3.17900344	    -10.14602966
